PathFileType	4	(X/Y/Z)	C:/Users/opensim2020/Desktop/walking_exp_matlab/subject02_walking14_straight_03.trc																																																																																																																									
DataRate	CameraRate	NumFrames	NumMarkers	Units	OrigDataRate	OrigDataStartFrame	OrigNumFrames																																																																																																																					
100	100	4	41	mm	100	1318	127																																																																																																																					
Frame#	Time	LFHD			RFHD			LBHD			RBHD			C7			T10			CLAV			STRN			RBAK			LSHO			LUPA			LELB			LFRM			LWRA			LWRB			LFIN			RSHO			RUPA			RELB			RFRM			RWRA			RWRB			RFIN			LASI			RASI			LPSI			RPSI			LTHI			LKNE			LTIB			LANK			LHEE			LTOE			RTHI			RKNE			RTIB			RANK			RHEE			RTOE			*39			*40		
		X1	Y1	Z1	X2	Y2	Z2	X3	Y3	Z3	X4	Y4	Z4	X5	Y5	Z5	X6	Y6	Z6	X7	Y7	Z7	X8	Y8	Z8	X9	Y9	Z9	X10	Y10	Z10	X11	Y11	Z11	X12	Y12	Z12	X13	Y13	Z13	X14	Y14	Z14	X15	Y15	Z15	X16	Y16	Z16	X17	Y17	Z17	X18	Y18	Z18	X19	Y19	Z19	X20	Y20	Z20	X21	Y21	Z21	X22	Y22	Z22	X23	Y23	Z23	X24	Y24	Z24	X25	Y25	Z25	X26	Y26	Z26	X27	Y27	Z27	X28	Y28	Z28	X29	Y29	Z29	X30	Y30	Z30	X31	Y31	Z31	X32	Y32	Z32	X33	Y33	Z33	X34	Y34	Z34	X35	Y35	Z35	X36	Y36	Z36	X37	Y37	Z37	X38	Y38	Z38	X39	Y39	Z39	X40	Y40	Z40	X41	Y41	Z41
																																																																																																																												
80	0.79	224.15791	1741.88757	1441.4917	239.61099	1732.3457	1584.80859	93.84	1667.88013	1451.94849	95.96003	1656.84265	1594.66455	47.08238	1528.73022	1529.9624	1.71543	1252.26489	1547.01135	186.4151	1464.82617	1511.62329	245.20206	1295.97217	1522.91675	-4.86943	1354.02173	1602.79309	104.88054	1498.698	1346.65833	75.02386	1294.98022	1272.27087	54.84865	1155.92761	1269.1333	49.1585	1025.43396	1258.92749	94.49146	894.71716	1285.66162	45.79082	902.26483	1256.8822	58.02468	837.1283	1251.50159	128.38094	1505.8905	1710.59412	100.17063	1323.44519	1806.05444	119.70655	1177.87207	1835.52649	169.51266	1064.89734	1847.3877	237.84726	951.11853	1817.35437	196.09213	937.01776	1853.67859	246.34772	884.86456	1850.85596	222.58701	998.13947	1402.44495	232.29501	982.21893	1657.53662	17.39852	1040.37415	1488.78516	20.18326	1037.0636	1603.17932	167.78348	679.02722	1357.58289	145.71609	477.7634	1394.41956	83.76418	291.85144	1398.76379	78.9024	70.50893	1441.98694	42.23931	43.38188	1493.28101	234.10744	35.35392	1427.51489	197.72429	674.19037	1735.01099	228.47136	481.20749	1723.11304	88.36131	366.12015	1723.14453	-45.30039	229.30756	1690.33728	-96.98244	204.1076	1628.05322	19.43425	86.45304	1727.11914	132.82788	1813.3335	1537.34705	2845.88599	1034.37402	-3357.36646
81	0.8	238.86465	1742.11841	1440.41235	254.23944	1732.52344	1583.71179	108.43286	1668.42615	1450.76721	110.39565	1657.35095	1593.45691	61.40444	1529.63306	1528.65479	15.28745	1252.90442	1544.16077	200.455	1465.27161	1510.49658	258.91278	1296.28577	1521.4552	9.03954	1353.99731	1599.80078	119.61263	1499.86194	1345.45959	92.84515	1296.12305	1269.72632	76.81045	1156.53052	1266.09485	74.74295	1025.37317	1255.89844	124.91557	896.59778	1284.69995	76.46193	902.33636	1255.00671	91.71941	837.74188	1249.8158	141.70607	1505.93762	1709.24768	111.68712	1323.64514	1804.31067	129.05719	1177.91577	1833.30835	175.66599	1063.72473	1845.81616	240.22997	947.30359	1816.08228	198.10437	934.88483	1852.71924	246.1152	880.47943	1849.41492	235.743	997.84406	1400.3064	245.79074	984.3349	1654.71765	30.93422	1040.91553	1486.44312	33.62071	1038.0177	1601.16174	175.34354	678.45367	1356.9668	148.83194	477.55847	1393.7666	84.60226	292.28049	1398.87744	79.08508	70.70489	1442.19446	42.04432	43.5861	1493.44666	234.36143	35.25093	1427.65833	216.52316	676.37158	1733.03101	253.35062	483.9332	1719.75317	117.45126	363.63016	1719.74829	-10.92202	221.65659	1686.79846	-62.29562	194.13785	1625.00317	61.14286	82.25864	1721.9231	147.54538	1813.68665	1535.99353	2846.09473	1034.33887	-3357.30225
82	0.81	253.54831	1742.0835	1439.15967	268.95026	1732.38916	1582.66858	122.97121	1668.50293	1449.34961	124.90349	1657.46033	1592.28723	75.49454	1529.75195	1526.9502	28.76932	1253.34265	1541.44897	214.54221	1465.39172	1509.42175	272.61749	1296.23535	1519.94092	22.51612	1354.34644	1597.43445	134.35254	1500.67017	1344.25281	111.65601	1296.98486	1267.71814	98.37045	1156.58557	1262.98486	101.71481	1025.21448	1253.45276	155.51726	898.7746	1283.71448	107.29786	902.22595	1252.67078	125.5806	838.61719	1248.10181	155.29533	1505.53564	1707.99036	123.41277	1323.67737	1802.91638	138.31706	1177.49512	1830.9657	181.65782	1062.2738	1844.15393	242.35776	943.38123	1814.68018	200.31441	932.77625	1851.90076	245.92842	875.94824	1847.85815	248.72719	997.20264	1398.1217	259.465	985.76343	1651.55469	44.45895	1041.07007	1484.37805	46.78898	1038.755	1599.44458	183.19048	677.53302	1356.35876	152.09212	477.26569	1393.05212	85.60477	292.7403	1398.79065	79.22313	70.84897	1442.3053	42.72309	43.50385	1494.10034	234.43747	35.17206	1427.61816	235.4612	678.49255	1731.38293	277.86166	486.5022	1716.61877	146.82364	360.42175	1716.83069	24.339	213.1487	1683.67395	-26.61623	183.26918	1622.45313	104.06035	77.89127	1717.04614	162.37323	1813.71838	1534.92871	2845.96191	1034.427	-3357.2583
83	0.82	268.26917	1741.82617	1438.32239	283.59827	1731.89404	1581.68799	137.70763	1668.46216	1448.45056	139.42516	1657.18909	1591.16687	90.03031	1529.82739	1525.73376	42.48324	1253.35181	1538.83093	228.71149	1465.17566	1508.41333	286.30621	1295.81909	1518.39331	36.17714	1354.56921	1595.51929	149.06232	1501.06702	1343.07397	130.05202	1297.59924	1265.56116	119.74113	1156.70349	1259.61646	128.06541	1025.35242	1250.80859	186.29762	901.11682	1282.5791	138.55904	902.60645	1250.84546	159.41801	839.89447	1246.35156	168.91513	1504.73865	1706.68408	135.07088	1323.22949	1801.43237	147.31372	1176.69067	1828.71619	187.61832	1060.42993	1842.22766	244.71043	939.70538	1813.41125	202.80011	930.69922	1851.21936	246.02306	871.72064	1846.46619	261.57755	996.21454	1395.85583	273.27686	986.55829	1648.33228	57.90596	1040.92114	1482.61841	60.07944	1039.11084	1597.98914	190.92456	676.83289	1355.68872	155.58296	476.9967	1392.37268	87.35695	293.0704	1398.53601	79.36774	71.04855	1442.41321	42.85244	43.8872	1494.24414	234.56989	35.07419	1427.55298	254.52774	680.56488	1730.19739	301.99579	488.78455	1713.60132	176.42372	356.62155	1714.35864	60.53933	203.85162	1681.06226	10.03271	171.24222	1619.8501	148.18295	73.51767	1712.66772	177.14526	1813.39124	1533.93811	2846.05176	1034.3623	-3357.35718
